<?xml version="1.0" encoding="UTF-8" standalone="no"?><!-- Generator: Gravit.io --><svg xmlns="http://www.w3.org/2000/svg" xmlns:xlink="http://www.w3.org/1999/xlink" style="isolation:isolate" viewBox="404.951 550.557 71.443 71.443" width="71.443pt" height="71.443pt"><defs><clipPath id="_clipPath_Nl2gBmBLQCprsMIwZUaqgVURPeEJrILD"><rect x="404.951" y="550.557" width="71.443" height="71.443"/></clipPath></defs><g clip-path="url(#_clipPath_Nl2gBmBLQCprsMIwZUaqgVURPeEJrILD)"><rect x="404.951" y="550.557" width="71.443" height="71.443" transform="matrix(1,0,0,1,0,0)" fill="none"/><path d=" M 453.028 604.806 C 453.682 604.298 454.307 603.747 454.898 603.157 C 458.664 599.385 460.788 594.261 460.788 588.931 C 460.788 583.6 458.664 578.476 454.898 574.705 C 451.127 570.939 446.003 568.815 440.672 568.815 C 435.342 568.815 430.218 570.939 426.446 574.705 C 422.68 578.476 420.557 583.6 420.557 588.931 L 420.557 588.931 L 420.557 588.931 L 420.557 588.931 C 420.557 594.261 422.68 599.385 426.446 603.157 C 427.038 603.747 427.663 604.298 428.317 604.806 L 425.231 608.77 C 419.327 604.167 415.528 596.989 415.528 588.931 L 415.528 588.931 L 415.528 588.931 L 415.528 588.931 C 415.528 575.053 426.795 563.787 440.672 563.787 C 454.55 563.787 465.817 575.053 465.817 588.931 C 465.817 596.989 462.017 604.167 456.114 608.77 L 453.028 604.806 Z  M 446.544 596.475 C 446.855 596.234 447.152 595.972 447.433 595.692 C 449.221 593.898 450.233 591.467 450.233 588.931 C 450.233 586.394 449.221 583.963 447.433 582.17 C 445.64 580.382 443.209 579.371 440.672 579.371 C 438.136 579.371 435.705 580.382 433.911 582.17 C 432.123 583.963 431.112 586.394 431.112 588.931 L 431.112 588.931 L 431.112 588.931 C 431.112 591.467 432.123 593.898 433.911 595.692 C 434.193 595.972 434.49 596.234 434.801 596.475 L 431.714 600.441 C 428.289 597.771 426.085 593.606 426.085 588.931 L 426.085 588.931 L 426.085 588.931 C 426.085 580.88 432.621 574.343 440.672 574.343 C 448.723 574.343 455.26 580.88 455.26 588.931 C 455.26 593.606 453.056 597.771 449.631 600.441 L 446.544 596.475 Z " fill-rule="evenodd" fill="rgb(255,255,255)"/></g></svg>