<?xml version="1.0" encoding="UTF-8" standalone="no"?><!-- Generator: Gravit.io --><svg xmlns="http://www.w3.org/2000/svg" xmlns:xlink="http://www.w3.org/1999/xlink" style="isolation:isolate" viewBox="412.102 536.529 54.31 54.31" width="54.31pt" height="54.31pt"><defs><clipPath id="_clipPath_7dvOAR0V1WKdki2Rf2QeZzHzY1BR7Ebd"><rect x="412.102" y="536.529" width="54.31" height="54.31"/></clipPath></defs><g clip-path="url(#_clipPath_7dvOAR0V1WKdki2Rf2QeZzHzY1BR7Ebd)"><rect x="412.102" y="536.529" width="54.31" height="54.31" transform="matrix(1,0,0,1,0,0)" fill="none"/><path d=" M 448.871 578.099 C 449.38 577.703 449.866 577.275 450.326 576.816 C 453.256 573.881 454.908 569.894 454.908 565.747 C 454.908 561.6 453.256 557.612 450.326 554.678 C 447.391 551.748 443.405 550.096 439.257 550.096 C 435.11 550.096 431.123 551.748 428.189 554.678 C 425.258 557.612 423.606 561.6 423.606 565.747 L 423.606 565.747 L 423.606 565.747 L 423.606 565.747 C 423.606 569.894 425.258 573.881 428.189 576.816 C 428.649 577.275 429.135 577.703 429.644 578.099 L 427.243 581.183 C 422.65 577.602 419.694 572.017 419.694 565.747 L 419.694 565.747 L 419.694 565.747 L 419.694 565.747 C 419.694 554.95 428.46 546.183 439.257 546.183 C 450.055 546.183 458.821 554.95 458.821 565.747 C 458.821 572.017 455.865 577.602 451.272 581.183 L 448.871 578.099 Z  M 443.826 571.617 C 444.068 571.429 444.299 571.226 444.518 571.007 C 445.909 569.612 446.696 567.721 446.696 565.747 C 446.696 563.773 445.909 561.882 444.518 560.486 C 443.122 559.096 441.231 558.308 439.257 558.308 C 437.284 558.308 435.392 559.096 433.997 560.486 C 432.606 561.882 431.819 563.773 431.819 565.747 L 431.819 565.747 L 431.819 565.747 C 431.819 567.721 432.606 569.612 433.997 571.007 C 434.216 571.226 434.447 571.429 434.689 571.617 L 432.287 574.702 C 429.622 572.625 427.907 569.384 427.907 565.747 L 427.907 565.747 L 427.907 565.747 C 427.907 559.483 432.993 554.397 439.257 554.397 C 445.521 554.397 450.607 559.483 450.607 565.747 C 450.607 569.384 448.892 572.625 446.227 574.702 L 443.826 571.617 Z " fill-rule="evenodd" fill="rgb(31,42,104)"/></g></svg>