<svg xmlns="http://www.w3.org/2000/svg" viewBox="0 0 247 247"><defs><style>.cls-1{fill:#f2fcff;}.cls-2{fill:#1f2a68;}.cls-10,.cls-11,.cls-12,.cls-13,.cls-2,.cls-3,.cls-4,.cls-5,.cls-7,.cls-8,.cls-9{fill-rule:evenodd;}.cls-3{fill:#0cf;}.cls-4{fill:#34877b;}.cls-5,.cls-6{fill:#3c4a59;}.cls-7{fill:#2d2d64;}.cls-8{fill:#15153d;}.cls-9{fill:#c5e1f9;}.cls-10{fill:#efc3c4;}.cls-11{fill:#fdd4d5;}.cls-12,.cls-14{fill:#e6e6e6;}.cls-13{fill:#fff;}</style></defs><g id="Layer_2" data-name="Layer 2"><g id="Layer_1-2" data-name="Layer 1"><path class="cls-1" d="M247,6V241a6,6,0,0,1-6,6H6a6,6,0,0,1-6-6V6A6,6,0,0,1,6,0H241A6,6,0,0,1,247,6Z"/><path class="cls-2" d="M141.45,214.67a46.84,46.84,0,0,0,6,1.73c2.45.44,3.33,3.21,2.59,6.34,0,0-1.7-.16-1.5,1s.87,1.86.82,3.21-3.64,8.2-5,8.66-2.17-1.48-1.84-5.76-1.08-8.37-3.32-10.08-1.24-5.73,2.26-5.13Z"/><path class="cls-2" d="M128.44,230.22s1.64,6.76,2.48,9.77-3.23,3.53-4.69,3.65-2.37-1.41-3-.42-1.46,1.27-3.14,1.63S109,247,110,244.43s10.11-6.47,10.9-8.5a15.77,15.77,0,0,0,1.23-5c.06-1.41,4.48-3.24,6.29-.69Z"/><path class="cls-2" d="M193.42,225.64a4.07,4.07,0,1,1-4.09,4.25,4.18,4.18,0,0,1,4.09-4.25Z"/><path class="cls-2" d="M171,219.93a3.32,3.32,0,0,1-2.35,1.1,3.2,3.2,0,0,1-3.41-3,3.06,3.06,0,0,1,.37-1.59Z"/><path class="cls-2" d="M137,23.21a81.94,81.94,0,1,1-78.2,85.52A81.94,81.94,0,0,1,137,23.21Z"/><path class="cls-3" d="M59.5,94a82.05,82.05,0,0,1,49-64.23c-.28,2.73-1,6.89-2.88,8.42-2.89,2.38-5.82,5.87-3.12,14s1.16,9.3-1.4,14.84-2.68,4.8-.2,12.17S102,93,99.39,94.44s-8,.73-11.11.4S80,101.11,76,101.38,62.38,98.47,59.5,94Z"/><path class="cls-3" d="M212.69,143.17a81.55,81.55,0,0,1-9.23,13.89c-.21,0-.4,0-.56,0-2.93-.08-32.81-1.9-32.63-4.06s2.85-5.18,6.37-10.2,2.49-19.56,5.45-22.5,7.3.14,8.74,5.13,1.54,7.22,4.83,5.58,11.76-.62,11.61,2.47c-.08,1.87,3,6.38,5.42,9.67Z"/><path class="cls-4" d="M128,144.44l-.13.26,0,.05.15.07,1.29.61Z"/><path class="cls-3" d="M121.1,74.77s-6,2.61-9.25,12.69-9.29,42.65-4.39,49.87,8.37,5.31,11.88,5.27,9.34-2.76,9.34-2.76,2,1.69,5.77-9c3.13-9,4.74-17.84,4-20.38-.14-.49-1.5-.7-1.5-.7s7.83.39,11.38-6.49c0,0-5.25-19.41-12.44-27.39s-8.09-4.4-9.77-4.15-2.72,1.32-5,3Z"/><path class="cls-5" d="M133.17,73.12a17.74,17.74,0,0,0-1.49-1.21c-1.21,2.58-10.92,22.84-21.39,34.49l1.39,1.25C121.89,96.29,131.32,77,133.17,73.12Z"/><path class="cls-6" d="M134.07,110.06,135,110c-3.86-5.67-6.37-17.52-6.37-17.52,1.16,11,4.44,16.06,5.46,17.58Z"/><path class="cls-7" d="M124.55,180.36s12,26.23,16,31-.71,7.63-3.39,9.15c0,0-12.11-14.6-16.24-25.87s-.35-13.14,3.64-14.25Z"/><path class="cls-8" d="M127.4,186.47l1,2.11c-.08,3.72-.24,14.56.17,20.26a98.66,98.66,0,0,1-5.08-8.49c.22-2.83.44-5.1.59-5.68.27-1.09-.58-10.6,3.31-8.2Z"/><path class="cls-9" d="M107.46,137.33s1.17,1.95,7.41.5,15.34-3.43,18.47-1.41c0,0,6.25,14.22.5,29.56S123.06,204.57,128,223.4l2,7.39s-7.5,2.27-10.63,1.53c0,0-5.83-36.27-4.59-42.52,0,0-5.65-6.06-6.82-8.7s-1.93-32.64-.52-43.77Z"/><path class="cls-8" d="M114.66,191.12c0,.51,0,1.09,0,1.73C114.66,192.47,114.67,191.88,114.66,191.12Zm-.15-8.39c-.62-12.31-1.93-30.8-1.93-30.8.28,14.44.3,24,.22,30.2,0,2.16-.06,3.91-.1,5.32l.33.38c.77.88,1.49,1.67,1.77,2C114.75,187.94,114.65,185.49,114.51,182.73Z"/><path class="cls-10" d="M122,68.18s-2.14,6.53-1.76,7.86,6.3-1.54,8.39-3.33c1.24-1.06,1.2-1.11,1.2-1.11s-.58-4.62-.54-5.7-6.1-.31-7.29,2.28Z"/><path class="cls-11" d="M116,54.1s-4.11,23,9.2,15c0,0,3.84-.57,4.78-1.35s4.6-7.62,4.05-9.35-1.37-8.59-6.8-9.63-9-3.4-11.23,5.31Z"/><path class="cls-9" d="M115.62,57.31s2.41-8.17,5.87-8,2.67,5,4.65,7.45a7.06,7.06,0,0,1,1.93,4.45c.22,1,1-.4,2.22-1.83,2.29-2.74,4.86,4.29-.3,5.55l-.44,3.21A6.7,6.7,0,0,0,132,66.83c11-13.13,1.78-10.1,3.86-19.64.45-2-2.51-6.3-5-6.83-2.25-.48-4.33,2.38-7.09,1.25-7.59-3.09-14.29,2.62-8.09,15.7Z"/><path class="cls-12" d="M141.63,128.76s-.47,1.1,1.92,2.32,3.38,2.88,3,4.93c0,0-5.54-1.72-3.92,2.22l-1.12,1.82s-6.35-1-6.31-4.32,3.06-6.77,6.38-7Z"/><path class="cls-9" d="M147.56,167.42s9-7.11,13.94-6.91,16.44,6.89,19.67,10.11,31,38.41,15.57,56.31l-9,3.86-23.49-15-13.34-34.44s-4-10.51-3.35-13.89Z"/><path class="cls-12" d="M147.56,167.42s9-7.11,13.94-6.91,16.44,6.89,19.67,10.11c.17.17.4.42.68.74L167,179l-19.45-9.61a7.24,7.24,0,0,1,0-2Z"/><path class="cls-3" d="M181.85,171.36c5.26,6,29.57,38.58,14.89,55.57L189,230.25h0L167,179Z"/><path class="cls-3" d="M148.85,141.47l15.55,41c.77,2,3.12,1.47,2.46-.81-1.74-6-15.57-41.27-15.72-41.66,0,0-3.13-1.64-2.29,1.49Z"/><path class="cls-3" d="M137.83,138.86l13.57,39.85c1.13,3.3-1.44,3.56-2.76.5-3.23-7.48-14.39-42.19-14.39-42.19a4.44,4.44,0,0,1,1.17-.38c.62.67,2,.84,2.41,2.22Z"/><path class="cls-11" d="M146.85,105.43s8.91,16.43-19.75,39.45c0,0-3.58-2.79-4.29-4.31,0,0,10.25-14,12.56-19.85,1.87-4.77,1-7.5.6-10.92,7.67-1,10.88-4.37,10.88-4.37Z"/><path class="cls-8" d="M120.06,137.79a90.65,90.65,0,0,1,10.5,9.8c-4-2.59-9-7.18-10.5-9.8Z"/><path class="cls-9" d="M145.91,135.51c1.06.54,3.05,1.54,4.26,2.18,3.14,1.64,2.17,5.12-1.89,3.58a38,38,0,0,1-5.07-2.54c-4-2.31-.74-4.94,2.7-3.22Z"/><path class="cls-3" d="M154.59,24.3a81.75,81.75,0,0,1,39.3,18.45c-5.29,2.47-10.56,6.16-11.51,7.48-1.58,2.22-11.52,1.73-12.66-4.86S158,39.26,158.58,33.43s-2-3.79-4-6.22a2.15,2.15,0,0,1,0-2.91Z"/><path class="cls-9" d="M103.29,106.38l9.28-.42a.43.43,0,0,1,.44.54l-2.17,10.79a.76.76,0,0,1-.66.59l-9.28.41a.42.42,0,0,1-.44-.53l2.17-10.8a.74.74,0,0,1,.66-.58Z"/><path class="cls-12" d="M103.25,106.38l6.58-.29a.42.42,0,0,1,.44.53l-2.17,10.8a.75.75,0,0,1-.66.58l-6.58.29a.42.42,0,0,1-.44-.53l2.17-10.8a.75.75,0,0,1,.66-.58Z"/><path class="cls-9" d="M104.4,106.33c1.7-.08,3,1.54,3,3.62s-1.49,3.82-3.19,3.9-3-1.55-3-3.62,1.49-3.83,3.2-3.9Z"/><path class="cls-12" d="M103.35,106.38c1.7-.08,3,1.54,3,3.62s-1.49,3.82-3.19,3.89-3.05-1.54-3-3.62,1.49-3.82,3.2-3.89Z"/><path class="cls-13" d="M111,36.36C126,35.19,98.9,29.47,92.57,29c0,0-1.43-17.51-14.55-10.09-2.63-24.82-21.55-15.7-22.85,3.6,0,0-10.36-3.52-17.26,4.52,0,0-17.52,1.92-20.51,6.11-4,5.57,80.36,4.28,93.58,3.25Z"/><path class="cls-13" d="M247,29.79v6.75c-18.72,1.22-53.22.65-60.43.11q-.51,0-.93-.09c-2.52-.27-3-.78-2.16-1.37h0c2.22-1.66,13.84-4,17.32-4.3,0,0,1.08-13.57,11.25-7.85,2-19.23,16.66-12.2,17.71,2.74,0,0,8-2.75,13.38,3.47C243.15,29.25,244.78,29.42,247,29.79Z"/><path class="cls-14" d="M179.37,41.05c-.22.19-.44.41-.65.61-.41.42.22,1,.61.63l.62-.59A.44.44,0,0,0,179.37,41.05ZM182,132.28l-.61-.62c-.42-.42-1,.21-.63.6l.61.63A.44.44,0,0,0,182,132.28Zm-1.82-1.88-.5-.54-.09-.09a.44.44,0,0,0-.65.59l.6.64A.44.44,0,0,0,180.19,130.4Zm-1.77-1.92-.58-.65a.44.44,0,1,0-.65.58l.58.65A.44.44,0,0,0,178.42,128.48Zm-1.72-2-.56-.67a.44.44,0,0,0-.67.56l.56.67A.44.44,0,0,0,176.7,126.52Zm-1.67-2-.54-.68a.44.44,0,0,0-.69.54l.55.69A.44.44,0,0,0,175,124.5Zm-1.6-2-.52-.7a.44.44,0,0,0-.71.52l.53.7A.44.44,0,0,0,173.43,122.45Zm-1.55-2.1-.49-.72a.44.44,0,0,0-.73.5l.51.72A.43.43,0,0,0,171.88,120.35Zm-1.47-2.16-.48-.72a.43.43,0,1,0-.73.47c.15.24.31.49.48.73A.44.44,0,1,0,170.41,118.19ZM169,116l-.45-.74a.44.44,0,0,0-.76.44l.46.76A.44.44,0,0,0,169,116Zm-1.33-2.24-.42-.76a.44.44,0,0,0-.77.41l.43.77A.43.43,0,1,0,167.68,113.75Zm-1.23-2.29-.4-.78a.44.44,0,0,0-.78.39l.4.78A.44.44,0,0,0,166.45,111.46Zm-1.15-2.35-.36-.78a.44.44,0,0,0-.8.35c.12.27.24.53.37.8A.44.44,0,0,0,165.3,109.11Zm-1.05-2.38-.33-.8a.44.44,0,0,0-.81.32l.33.81A.44.44,0,0,0,164.25,106.73Zm-.95-2.43-.29-.81a.44.44,0,0,0-.83.28l.3.83A.44.44,0,0,0,163.3,104.3Zm-.83-2.46-.26-.83a.44.44,0,0,0-.84.25l.26.84A.44.44,0,0,0,162.47,101.84Zm-.73-2.5-.21-.84a.44.44,0,0,0-.85.21l.22.85A.43.43,0,0,0,161.74,99.34ZM161,96a.44.44,0,0,0-.86.17l.17.86a.44.44,0,0,0,.86-.18Zm-.44-2.56a.44.44,0,0,0-.87.12c0,.29.09.58.14.87a.44.44,0,0,0,.86-.14C160.62,94,160.57,93.68,160.53,93.4Zm-.31-2.58a.44.44,0,0,0-.87.07l.09.88a.44.44,0,0,0,.87-.09Zm-.18-2.6a.44.44,0,0,0-.87,0c0,.3,0,.59,0,.89a.44.44,0,0,0,.88-.06C160.07,88.8,160.05,88.51,160,88.22Zm-.92-2.61v.88a.44.44,0,0,0,.87,0v-.87A.44.44,0,0,0,159.12,85.61ZM159.2,83c0,.29,0,.59,0,.88a.44.44,0,0,0,.87,0c0-.28,0-.57.05-.86A.44.44,0,0,0,159.2,83Zm.22-2.64-.09.88a.44.44,0,0,0,.87.08l.09-.86A.44.44,0,0,0,159.42,80.33Zm.35-2.62c-.05.29-.09.58-.13.87a.43.43,0,0,0,.86.13c0-.29.08-.58.13-.86A.44.44,0,0,0,159.77,77.71Zm.47-2.6c-.06.28-.12.57-.17.86a.44.44,0,0,0,.86.17c0-.28.11-.57.16-.85A.43.43,0,1,0,160.24,75.11Zm.59-2.58-.21.86a.44.44,0,0,0,.85.2l.21-.84A.44.44,0,0,0,160.83,72.53Zm.71-2.54-.25.84a.44.44,0,0,0,.84.25l.25-.84A.44.44,0,0,0,161.54,70Zm.83-2.51c-.1.28-.2.55-.29.83a.44.44,0,0,0,.83.28l.28-.82A.43.43,0,0,0,162.37,67.48ZM163.3,65l-.32.81a.44.44,0,0,0,.81.32l.32-.81A.44.44,0,0,0,163.3,65Zm1-2.44c-.12.27-.24.54-.35.81a.44.44,0,0,0,.74.45l.06-.1c.11-.27.23-.53.35-.79A.44.44,0,0,0,164.33,62.57Zm1.13-2.38-.39.79a.44.44,0,0,0,.79.38l.38-.78A.44.44,0,0,0,165.46,60.19Zm1.22-2.34-.41.77A.44.44,0,0,0,167,59l.41-.77A.44.44,0,0,0,166.68,57.85ZM168,55.56l-.44.76a.43.43,0,0,0,.75.44l.44-.75A.44.44,0,1,0,168,55.56Zm1.39-2.25-.47.75a.44.44,0,0,0,.74.46l.46-.73A.44.44,0,0,0,169.38,53.31Zm1.47-2.19-.5.73a.44.44,0,0,0,.73.49c.16-.24.32-.48.49-.71A.44.44,0,0,0,170.85,51.12ZM172.4,49c-.1.12-.19.25-.28.37l-.25.33a.44.44,0,0,0,.71.52c.08-.12.17-.23.26-.35s.17-.23.26-.35A.44.44,0,0,0,172.4,49ZM174,46.91l-.55.68a.44.44,0,0,0,.69.55l.54-.69A.43.43,0,0,0,174,46.91Zm1.69-2-.57.67a.44.44,0,0,0,.67.57l.56-.66A.44.44,0,0,0,175.71,44.88Zm1.78-2-.6.64a.44.44,0,0,0,.64.59l.59-.63A.44.44,0,0,0,177.49,42.93Z"/><path class="cls-13" d="M0,81.09c14.24,1.77,45.5,1.77,54.36,1.21,13.57-.87,3.63-5.76-2.1-6.16,0,0-1.38-10.18-13.29-4.5-3.6-11-20.62-5-20.72,2.71,0,0-9.26-6-15.53.16A25.29,25.29,0,0,0,0,75Z"/><path class="cls-13" d="M230.87,81.37c8.09-.52,2.16-3.44-1.25-3.68,0,0-.83-6.07-7.93-2.68-2.15-6.57-12.3-3-12.36,1.62,0,0-5.52-3.58-9.26.09,0,0-4.17.47-5.79,2.39-2.16,2.54,29.44,2.71,36.59,2.26Z"/></g></g></svg>