<svg xmlns="http://www.w3.org/2000/svg" viewBox="0 0 247 247.31"><defs><style>.cls-1{fill:#f2fcff;}.cls-10,.cls-2{fill:#fff;}.cls-11,.cls-12,.cls-14,.cls-15,.cls-16,.cls-2,.cls-3,.cls-4,.cls-8,.cls-9{fill-rule:evenodd;}.cls-3{fill:#8dcfff;}.cls-13,.cls-4{fill:#0cf;}.cls-5,.cls-9{fill:#1f2a68;}.cls-6{fill:#568078;}.cls-7{fill:#c5e1f9;}.cls-8{fill:#7eb3ff;}.cls-11{fill:#16a085;}.cls-12{fill:#117863;}.cls-14{fill:#fadacd;}.cls-15{fill:#e4b0a2;}.cls-16{fill:#61a0d8;}</style></defs><g id="Layer_2" data-name="Layer 2"><g id="Layer_1-2" data-name="Layer 1"><rect class="cls-1" width="247" height="247" rx="6"/><path class="cls-2" d="M25.23,240.68c-4-6.62-9.38-19.87-11.1-35.16s.2-32.6,6.13-46.68a61.71,61.71,0,0,1,30.33-32.17c14.46-7.23,33.46-10.85,49.44-5s28.94,21.19,40.5,33.65,21.72,22,34.37,22.22,27.78-9.09,38.06-8.46,15.69,11.12,19,20.66,4.6,18.12,3.11,27.56S229.34,237,226,242.16s-5.81,5.15-16.93,5.15H44.87c-13,0-15.63,0-19.64-6.63"/><path class="cls-2" d="M25.23,240.68c-4-6.62-9.38-19.87-11.1-35.16a100.31,100.31,0,0,1,3.07-38A119.39,119.39,0,0,1,38.67,169a74.3,74.3,0,0,1,38.24,18.6c8.31,7.39,13,14,21.13,18.54s19.58,7.06,29.08,5.21,17-8.05,28.37-16c8.78-6.12,19.86-13.28,31-19.6,9.53-2.61,19.23-7.11,26.5-6.67,10.27.62,15.69,11.12,19,20.66s4.6,18.12,3.11,27.56S229.34,237,226,242.16s-5.81,5.15-16.93,5.15H44.87c-13,0-15.63,0-19.64-6.63"/><path class="cls-3" d="M175.36,247.31H125.82a32.25,32.25,0,0,1,33.65-35.93,26.89,26.89,0,0,1,15.89,35.93"/><path class="cls-4" d="M174.62,247.31H134.55q1.33-21.74,12.3-34h0a23.75,23.75,0,0,1,28.21,12.33,26.7,26.7,0,0,1,2.4,9.83,23.87,23.87,0,0,1-2.85,11.88"/><path class="cls-2" d="M220.51,184.61c3.22,9.9,4.35,19,2.78,28.89-1.69,10.63-6.49,22.22-10.27,28s-6.55,5.8-19.08,5.8h-44.2a49.28,49.28,0,0,1,70.77-62.7"/><rect class="cls-5" x="49.11" y="148.33" width="3.72" height="98.97"/><rect class="cls-5" x="49.11" y="169.52" width="3.72" height="8.82"/><rect class="cls-5" x="152.98" y="148.33" width="3.72" height="98.97"/><rect class="cls-6" x="152.98" y="169.52" width="3.72" height="8.82"/><rect class="cls-7" x="47.13" y="148.33" width="111.54" height="24.17"/><path class="cls-8" d="M106.84,148.33h38.6a150.51,150.51,0,0,1-18.73,24.17H108.8a27.13,27.13,0,0,1-9.67-12.74Z"/><path class="cls-3" d="M176.44,205.42c-2.65-3.72-5.72-10.95-9.24-16.73s-7.5-10.12-10.14-13.92-3.92-7-3.71-10.09a7,7,0,0,1,5.19-6.71c3.28-.83,8.13.36,11.85,3.64s6.3,8.65,8.61,15.78a135.4,135.4,0,0,1,5.06,21.7c.71,5.66.09,8.06-1.33,9.16s-3.64.89-6.29-2.83"/><path class="cls-3" d="M176.44,205.42c-2.65-3.72-5.72-10.95-9.24-16.73a142.72,142.72,0,0,0-8.92-12.24q15.76-2.87,23.1,9.27a117.84,117.84,0,0,1,2.68,13.37c.71,5.66.09,8.06-1.33,9.16s-3.64.89-6.29-2.83"/><path class="cls-3" d="M190.09,199.82c-1,4.1-.26,7,1.37,7.63s4.15-.82,7.44-4,7.36-8.19,11.68-11.77,8.89-5.79,11.54-8.09,3.39-4.71,2.83-7.07a7,7,0,0,0-5.63-5.29c-3.22-.6-7.79.52-11.82,3.12S200,181,196.89,185.68s-5.81,10-6.8,14.14"/><path class="cls-3" d="M190.09,199.82c-1,4.1-.26,7,1.37,7.63s4.15-.82,7.44-4,7.36-8.19,11.68-11.77a84.55,84.55,0,0,1,8.28-5.74,26.73,26.73,0,0,0-4.59-1,38,38,0,0,0-12.9.4,26.24,26.24,0,0,0-5.5,1.94,47.32,47.32,0,0,0-5.78,12.55"/><path class="cls-9" d="M183.9,184.62c.62,4.89,2.43,8,4.54,8.45s4.49-1.59,7.19-7.48,5.73-15.61,9.18-22.53,7.33-11.05,9.86-15.6,3.71-9.5,1.65-12.26-7.39-3.33-12.14-1.16-8.93,7.07-12.13,12.91a70.39,70.39,0,0,0-6.82,19.33c-1.39,6.74-2,13.45-1.33,18.34"/><path class="cls-9" d="M183.9,184.62c.62,4.89,2.43,8,4.54,8.45s4.49-1.59,7.19-7.48,5.73-15.61,9.18-22.53,7.33-11.05,9.86-15.6c.34-.62.67-1.26,1-1.89h-.34c-4.64.08-13.43,2.43-19.35,6.26-4.41,2.84-7.22,6.51-9.55,9.56-.43,1.63.34-1.63,0,0-1.39,6.74-3.12,18.34-2.49,23.23"/><path class="cls-10" d="M168,175.47a.88.88,0,1,1,1.49-.92q15.06,24.45,19.33,63.88a.86.86,0,0,1-.77,1,.88.88,0,0,1-1-.78q-4.23-39-19.08-63.14"/><path class="cls-10" d="M188.06,232.26a.87.87,0,0,1-.83.91.88.88,0,0,1-.92-.83Q185,204.55,189.18,183T203,146a.88.88,0,0,1,1.49.93Q195,162,190.9,183.34t-2.84,48.92"/><path class="cls-10" d="M188.56,236.19a.88.88,0,0,1-.87.88.86.86,0,0,1-.88-.86q-.56-36.21,17.34-49.51a.88.88,0,0,1,1.23.18.87.87,0,0,1-.19,1.22Q188,200.87,188.56,236.19"/><polygon class="cls-4" points="200.51 247.31 176.8 247.31 170.12 211.77 207.19 211.77 200.51 247.31"/><polygon class="cls-11" points="171.38 218.49 170.12 211.77 207.19 211.77 205.93 218.49 171.38 218.49"/><polygon class="cls-4" points="200.51 247.31 176.8 247.31 174.24 233.7 203.73 211.77 207.19 211.77 200.51 247.31"/><polygon class="cls-12" points="194.69 218.49 203.73 211.77 207.19 211.77 205.93 218.49 194.69 218.49"/><rect class="cls-13" x="169.27" y="210.57" width="38.78" height="6.13"/><polygon class="cls-4" points="203.91 210.57 208.04 210.57 208.04 216.7 197.28 216.7 203.91 210.57"/><rect class="cls-5" x="40.53" y="146.92" width="124.74" height="3.02"/><rect class="cls-13" x="57.14" y="143.99" width="42.1" height="2.93"/><path class="cls-14" d="M81.4,237.94a8.13,8.13,0,0,1-11.9-2.23l3.1-9.21a16.84,16.84,0,0,0,11.64,4.68Z"/><path class="cls-15" d="M70.93,231.46l1.67-5a16.84,16.84,0,0,0,11.64,4.68l-.86,2a22.9,22.9,0,0,1-12.45-1.76"/><path class="cls-4" d="M130.9,134.91c1.88,8.58.14,17.28-6,26.54l-21,28.07s3.66,9.29,11,27.88a11.47,11.47,0,0,1-12.08,7.44l-8.56-15.61s-3.09,7.43-9.29,22.3a11.69,11.69,0,0,1-13.2-4.65l11-37.55q-10-12.72-2.48-30.79h0l12.22-23.1a38,38,0,0,0,38.43-.53"/><path class="cls-9" d="M130.9,134.91c.06.28.12.56.17.84q-17.61,14.31-41.71,5.58l3.11-5.89a38,38,0,0,0,38.43-.53"/><path class="cls-16" d="M82.73,189.33a25.8,25.8,0,0,1-5.42-12.24L105.44,148,82.73,189.33"/><path class="cls-14" d="M117.75,225.75a8.13,8.13,0,0,1-9.26,7.08,3.15,3.15,0,0,0,.09-.42l-4.73-7.5L103,223.2a17,17,0,0,0,11.24-5.81Z"/><path class="cls-15" d="M105.88,228.14l-2-3.23L103,223.2a17,17,0,0,0,11.24-5.81l.94,2.22a24.09,24.09,0,0,1-9.27,8.53"/><path class="cls-16" d="M103.9,189.52s3.66,9.29,11,27.88a11.47,11.47,0,0,1-12.08,7.44l-8.56-15.61a147.7,147.7,0,0,1,9.67-19.71"/><path class="cls-9" d="M82.32,190.72l.41-1.39L90,174.8q5.55-10.1,14.75-26.56a.52.52,0,0,1,.71-.2.53.53,0,0,1,.2.72Q96.58,165,90.9,175.31c-2.51,4.57-5.49,11.39-8.58,15.41"/><path class="cls-4" d="M98.22,135.62A42.51,42.51,0,0,0,128,134.26q4-2.47,2.56-8.25s-.82-5.77-2.44-17.31l2.32,3.49S132,121,135.27,138.5a2.47,2.47,0,0,0,1.8,2l8.6-1.16a3.22,3.22,0,0,0,1-2.56s-.79-6.47-2.38-19.4A41.82,41.82,0,0,0,142.24,107l-6.39-18.24q-3.14-10.43-9.53-14.53l-12.19-7c-2.75-1.58-2.91-1.61-6.2-1.61a32.18,32.18,0,0,0-11,2A19.55,19.55,0,0,0,91,70.81L85.19,75a17.41,17.41,0,0,0-5.11,9.67Q72.3,99.23,72.3,99.24l-.55-.87h0l-5.32-9.52c-1.22-4.61-9.9-1.07-12.26.92a2.9,2.9,0,0,0-.87,2.9q13.19,22.14,13.19,22.13a7.5,7.5,0,0,0,10.8.35l10.23-13.36q5.16,19.39,4.83,28.52c-.45,4.25,2.6,4.3,5.87,5.31"/><path class="cls-9" d="M112.05,66.13c-1.12-.49-1.92-.5-4.12-.5a32.18,32.18,0,0,0-11,2A18.72,18.72,0,0,0,92,70.07q7,5.76,20-3.94"/><path class="cls-9" d="M112.61,66.4a8.44,8.44,0,0,0-1-.45,12.52,12.52,0,0,1-4.42,2.91,30.27,30.27,0,0,1-10.42,1.87.53.53,0,1,0,0,1,31.35,31.35,0,0,0,10.79-2,13.39,13.39,0,0,0,5-3.43"/><path class="cls-9" d="M65.33,87.22c-2.73-1.89-9.18.87-11.16,2.55a2.72,2.72,0,0,0-.88,1.46q9.12.49,12-4"/><path class="cls-14" d="M83.69,49.09A11.34,11.34,0,1,1,105.83,51l2.34,16.32a16.17,16.17,0,0,1-10.26,2L96.16,65,94,64.62c-5.31-1-6.15-5.6-8.12-10.28Z"/><path class="cls-15" d="M83.69,49.09c0-.3,0-.59-.06-.89a13.83,13.83,0,0,1,13.9-3.27Q94.37,51.76,85.76,54Z"/><path class="cls-9" d="M97,46.12c-.89.39-2.26,2-4.43,3.55s-5.13,3-7.78,3a7.26,7.26,0,0,1-6-3.23,4.82,4.82,0,0,1-.11-5c.79-1.23,2.19-1.66,3.46-2.79s2.44-2.93,4.07-4.31A15,15,0,0,1,92,34.43,13.32,13.32,0,0,1,97.81,34a4.46,4.46,0,0,1,2.81,1.86c.45.67.5,1.16,1,1.28s1.5-.14,2.31,0a3.09,3.09,0,0,1,2,1.8,16.43,16.43,0,0,1,1.33,4.13,20.55,20.55,0,0,1,.36,5c-.11,1.73-.47,3.51-.62,5.36s-.1,3.76-.35,4.14-.83-.79-1.33-1.61a3.79,3.79,0,0,1-.88-2.3,21.59,21.59,0,0,0,.31-3.78,3.87,3.87,0,0,0-1.59-2.43c-.58-.44-.91-.52-1.24-.06a5,5,0,0,0-.66,2.5,18.18,18.18,0,0,1,.08,2.59c-.15.37-.72-.07-1.24-1.05a38.2,38.2,0,0,1-1.42-3.7c-.44-1.18-.85-2-1.74-1.65"/><path class="cls-15" d="M102.86,69.22a16.1,16.1,0,0,1-5,.09L96.16,65a5.44,5.44,0,0,0,3.73-1l3.56-2.81Z"/><path class="cls-16" d="M98.22,135.62A42.51,42.51,0,0,0,128,134.26q4-2.47,2.56-8.25-24.33,10.69-43-24.22,5.16,19.39,4.83,28.52c-.45,4.25,2.6,4.3,5.87,5.31"/><path class="cls-14" d="M137.42,139.26l7.39-.81c1,2.41,2.61,2,3.41,5t1,6.54q-.19,3.75-8.1,4.39a2,2,0,0,1-2.9.15l-.77-2.21c-.6.15-1.09-.16-1.48-.93,0,0-.25-1.18-.77-3.56a5.35,5.35,0,0,1,1.08-3.56,13.11,13.11,0,0,0,1.17-5"/><path class="cls-15" d="M137.42,139.26l7.39-.81a5.39,5.39,0,0,0,1.69,2.21L136.74,143a14,14,0,0,0,.68-3.75"/><path class="cls-16" d="M130.39,112.19S132,121,135.27,138.5a2.47,2.47,0,0,0,1.8,2l8.6-1.16a3.22,3.22,0,0,0,1-2.56l-1-8.18c-6.17.13-12.22-11.92-15.32-16.39"/><path class="cls-16" d="M66.35,114.57l.14.23a7.5,7.5,0,0,0,10.8.35l10.23-13.36-1.41-8.58q-9.57,20.08-19.76,21.36"/><path class="cls-4" d="M130.83,129.93a37.82,37.82,0,0,1-38,3.25l-1.14,3.73a37.93,37.93,0,0,0,39.75-1.46q-.62-5.52-.61-5.52"/><path class="cls-16" d="M122.52,134.35a37.82,37.82,0,0,1-29.69-1.17l-1.14,3.73a37.93,37.93,0,0,0,23,4.68,26.78,26.78,0,0,0,7.83-7.24"/><path class="cls-9" d="M128.44,111.35l-.37-2.65c-1.5-5.69-2.49-8.65-4.51-14.38a.54.54,0,0,0-.67-.32.52.52,0,0,0-.32.67c2,5.56,3.92,11.12,5.87,16.68"/><path class="cls-9" d="M72.57,98.72l-.27.52c.14,1,.37,2.45.68,4.49a31.87,31.87,0,0,1,.41,5,.52.52,0,0,0,.52.52.53.53,0,0,0,.53-.53,31.69,31.69,0,0,0-.43-5.22C73.86,102.63,73.28,99.6,72.57,98.72Z"/><path class="cls-9" d="M86.9,102.6l.62-.81a118.12,118.12,0,0,0-1.47-12.15.53.53,0,1,0-1,.17Z"/><path class="cls-15" d="M137.42,152.27a.84.84,0,0,1-.38,0l-.29-3.72a.36.36,0,0,1,.33-.38.35.35,0,0,1,.37.33,27.53,27.53,0,0,1,0,3.74"/><path class="cls-9" d="M65.84,76.41l-1-6.72a3.32,3.32,0,0,0-1.07.56,3.43,3.43,0,0,0-1.3,3.22,3.48,3.48,0,0,0,.72,1.66,3.38,3.38,0,0,0,1.46,1.05,3.23,3.23,0,0,0,1.19.23M65,66.85l9.39-1.39a.59.59,0,0,1,.67.49l1.61,10.89a.6.6,0,0,1-.5.67L66.8,78.9a.6.6,0,0,1-.67-.5L66.06,78A5,5,0,0,1,62,76.1a5,5,0,0,1,2.64-8l-.09-.62A.58.58,0,0,1,65,66.85Z"/><path class="cls-14" d="M55.18,76.39a3.35,3.35,0,0,1,2-2.72L60.36,71a2.71,2.71,0,0,1,2.37-.4A9,9,0,0,1,67,77.85c.12,2.65-.52,2.76-2.3,4.6a10.77,10.77,0,0,1-1.62,3.78c.09,2,.14,3.07.14,3.07a12.89,12.89,0,0,1-8.42,2,12.14,12.14,0,0,1-.17-5.75c.36-6.13.53-9.2.53-9.2"/><path class="cls-15" d="M63.2,88.44l0,.86a12.89,12.89,0,0,1-8.42,2,14.17,14.17,0,0,1-.44-3.44Z"/><path class="cls-15" d="M66.77,76.11q.09.38.15.75l-4.3,3.54a.35.35,0,0,1-.48,0,.34.34,0,0,1,0-.48Zm-1.25-2.84c.13.2.25.39.36.6L60.09,79a.34.34,0,0,1-.48,0,.34.34,0,0,1,0-.48Zm-2-2.15c.19.14.36.28.53.43L58.29,76.9a.34.34,0,0,1-.48,0,.34.34,0,0,1,0-.48Z"/><path class="cls-9" d="M49.47,247.31h34V235.64a1.85,1.85,0,0,0-1.54-.82,1.88,1.88,0,0,0-1.54.82c-2,1.5-6.31,1.5-8.26,0a2.55,2.55,0,0,0-1.6-1.16,2.57,2.57,0,0,0-2,.34l-15,6.74c-2.27.35-4,3.45-4.14,5.75"/><path class="cls-9" d="M109.79,247.31H96.58q1.24-5.17,7.74-7.44l.5-1.58v0l0-.14.13-.42,0-.13,0-.14,0-.13,0-.12,0-.13,0-.12.11-.34,0-.11,0-.11,0-.11,0-.1,0-.1,0-.09.09-.28,0-.08,0-.08,0-.08,0-.08,0-.07,0-.08,0-.13,0-.07,0-.06.1-.31v0l0-.11v-.11l0-.08h0l.5-1.57a2.5,2.5,0,0,1,1.11-1.63,2.56,2.56,0,0,1,1.94-.34c2.44-.35,5.49-3.47,5.78-5.91a1.86,1.86,0,0,1,2.15-2.2l8.35,8.15-7.19,7.37h0l-8.93,9.14"/><path class="cls-5" d="M92.83,133.18l0,0h.08l0,0h0l.56.26h0l0,0,0,0h0l.84.36h0a36.71,36.71,0,0,0,15.56,2.34,43,43,0,0,0,18-5.2.53.53,0,0,1,.71.23.52.52,0,0,1-.22.71,44.27,44.27,0,0,1-18.42,5.31,36.71,36.71,0,0,1-17.63-3.13Z"/></g></g></svg>