<svg xmlns="http://www.w3.org/2000/svg" xmlns:xlink="http://www.w3.org/1999/xlink" viewBox="0 0 247 343.17"><defs><style>.cls-1,.cls-11,.cls-20,.cls-21,.cls-8{fill:none;}.cls-2{fill:#f2fcff;}.cls-3{fill:#8dcfff;}.cls-4{fill:#fff;}.cls-5{fill:#7eb3ff;}.cls-6{fill:#c5e1f9;}.cls-7{fill:#eaf4fe;}.cls-8{stroke:#1f2a68;stroke-width:0.5px;}.cls-11,.cls-20,.cls-21,.cls-8{stroke-miterlimit:10;}.cls-9{fill:#0cf;}.cls-10{fill:#1f2a68;}.cls-11{stroke:#0cf;}.cls-12{clip-path:url(#clip-path);}.cls-13{fill:#3b4572;}.cls-14{fill:#f7b68b;}.cls-15{fill:#ec9568;}.cls-16{fill:#61a0d8;}.cls-17{fill:#e4b0a2;}.cls-18{fill:#fadacd;}.cls-19{fill:#212957;}.cls-20{stroke:#0561fc;stroke-width:0.46px;}.cls-21{stroke:#7dc2f5;stroke-width:0.56px;}</style><clipPath id="clip-path"><rect class="cls-1" x="32.64" y="77.88" width="130.5" height="135.33"/></clipPath></defs><g id="Layer_2" data-name="Layer 2"><g id="Layer_1-2" data-name="Layer 1"><rect class="cls-2" width="247" height="247" rx="6"/><path class="cls-3" d="M222.73,69.55a32.2,32.2,0,1,1-32.2-32.2A32.19,32.19,0,0,1,222.73,69.55Z"/><path class="cls-4" d="M219.16,69.55a28.63,28.63,0,1,1-28.63-28.62A28.63,28.63,0,0,1,219.16,69.55Z"/><rect class="cls-5" x="190.05" y="43.05" width="1" height="1"/><rect class="cls-5" x="190.05" y="43.12" width="1" height="6.06"/><polygon class="cls-5" points="180.79 51.61 179.92 52.11 176.9 46.87 177.76 46.37 180.79 51.61"/><rect class="cls-5" x="169.75" y="54.79" width="1" height="6.06" transform="translate(35.09 176.4) rotate(-60.02)"/><rect class="cls-5" x="164.02" y="69.03" width="6.05" height="1" transform="translate(-0.19 0.45) rotate(-0.16)"/><polygon class="cls-5" points="172.6 79.33 173.1 80.19 167.86 83.22 167.36 82.36 172.6 79.33"/><polygon class="cls-5" points="179.9 86.99 180.76 87.49 177.73 92.74 176.87 92.24 179.9 86.99"/><rect class="cls-5" x="190.01" y="90" width="1" height="6.06"/><rect class="cls-5" x="201.77" y="86.85" width="1" height="6.06" transform="translate(-17.85 113.14) rotate(-29.99)"/><rect class="cls-5" x="210.33" y="78.23" width="1" height="6.06" transform="translate(34.97 223.14) rotate(-59.98)"/><rect class="cls-5" x="210.97" y="69.06" width="6.05" height="1"/><rect class="cls-5" x="207.85" y="57.35" width="6.06" height="1" transform="translate(-0.64 113.32) rotate(-30.04)"/><rect class="cls-5" x="199.23" y="48.75" width="6.06" height="1" transform="translate(58.5 199.81) rotate(-60.01)"/><rect class="cls-5" x="177.06" y="46.52" width="1" height="1" transform="matrix(0.86, -0.5, 0.5, 0.86, 0.38, 95.45)"/><polygon class="cls-5" points="168.71 56.35 168.22 57.22 167.35 56.72 167.85 55.85 168.71 56.35"/><rect class="cls-5" x="164.04" y="69.03" width="1" height="1"/><polygon class="cls-5" points="168.2 81.85 168.7 82.72 167.83 83.21 167.34 82.35 168.2 81.85"/><rect class="cls-5" x="177.03" y="91.55" width="1" height="1" transform="translate(8.59 199.06) rotate(-59.76)"/><polygon class="cls-5" points="190.03 95.04 191.03 95.04 191.03 96.04 190.03 96.04 190.03 95.04"/><polygon class="cls-5" points="202.85 91.88 203.71 91.39 204.21 92.25 203.35 92.75 202.85 91.88"/><polygon class="cls-5" points="212.36 82.74 212.87 81.87 213.73 82.37 213.24 83.23 212.36 82.74"/><rect class="cls-5" x="216.04" y="69.06" width="1" height="1"/><polygon class="cls-5" points="212.88 57.24 212.38 56.38 213.25 55.88 213.75 56.74 212.88 57.24"/><rect class="cls-5" x="203.05" y="46.54" width="1" height="1" transform="translate(60.83 199.6) rotate(-59.92)"/><polygon class="cls-6" points="187.91 67.5 187.4 68.36 178.32 63.12 178.83 62.26 187.91 67.5"/><polygon class="cls-6" points="189.71 69.2 187.62 68 187.75 67.77 189.84 68.98 189.71 69.2"/><polygon class="cls-6" points="195.46 66.5 194.88 65.69 209.51 55.26 210.08 56.08 195.46 66.5"/><polygon class="cls-6" points="191.28 68.96 191.13 68.75 195.37 65.72 195.51 65.93 191.28 68.96"/><path class="cls-6" d="M190.51,70.24a.94.94,0,1,1,.93-.93A.94.94,0,0,1,190.51,70.24Zm0-1.61a.68.68,0,1,0,.67.68A.68.68,0,0,0,190.51,68.63Z"/><path class="cls-7" d="M190.51,70a.64.64,0,0,1-.64-.64.64.64,0,0,1,1.27,0A.64.64,0,0,1,190.51,70Zm0-1a.38.38,0,0,0-.38.38.38.38,0,0,0,.75,0A.38.38,0,0,0,190.51,68.93Z"/><rect class="cls-7" x="190.44" y="69.86" width="0.19" height="21.7"/><rect class="cls-7" x="190.44" y="65.82" width="0.19" height="2.99"/><polyline class="cls-8" points="79.84 115.81 22.44 115.81 22.44 83.62 79.84 83.62"/><rect class="cls-9" x="22.44" y="76.32" width="57.4" height="7.3"/><line class="cls-9" x1="22.96" y1="83.99" x2="79.88" y2="83.99"/><line class="cls-8" x1="22.96" y1="92.05" x2="79.88" y2="92.05"/><line class="cls-8" x1="22.96" y1="100.1" x2="79.88" y2="100.1"/><line class="cls-8" x1="22.96" y1="108.16" x2="79.88" y2="108.16"/><line class="cls-10" x1="22.96" y1="116.22" x2="79.88" y2="116.22"/><line class="cls-8" x1="55.18" y1="83.99" x2="55.18" y2="116.48"/><line class="cls-8" x1="47.12" y1="83.99" x2="47.12" y2="116.48"/><line class="cls-8" x1="39.07" y1="83.99" x2="39.07" y2="116.48"/><line class="cls-8" x1="31.01" y1="83.99" x2="31.01" y2="116.48"/><line class="cls-8" x1="79.35" y1="83.99" x2="79.35" y2="116.48"/><line class="cls-8" x1="71.29" y1="83.99" x2="71.29" y2="116.48"/><line class="cls-8" x1="63.23" y1="83.99" x2="63.23" y2="116.48"/><line class="cls-8" x1="55.18" y1="83.99" x2="55.18" y2="116.48"/><path class="cls-11" d="M40.17,80a4.57,4.57,0,1,1,4.57-4.57"/><path class="cls-11" d="M60.57,80a4.57,4.57,0,1,1,4.56-4.57"/><g class="cls-12"><path class="cls-10" d="M146.2,138.62s-11.46-9.71-1.73-24.55c5.4-8.23,3.67-31-13-24.32s-11.87-2-21.27,1.74-13.74,9.56-12.76,16-.31,18.74-6.1,21S57.8,143.41,74.69,160.47,155.9,166.59,146.2,138.62Z"/><path class="cls-13" d="M131.48,89.75c-15.75,6.35-12.34-1.08-19.85,1.24a21.87,21.87,0,0,0,3.63,4.69c6.44,6.51,18.68,9,30.81,8.15C146.35,94.52,143.32,85,131.48,89.75Z"/><path class="cls-14" d="M90.33,256.25,50.52,335.13s1.26,1.3,15.27-13.53C80.54,306,95.19,291,100.05,283.31s6.24-29.14,4.16-29.84S90.33,256.25,90.33,256.25Z"/><path class="cls-9" d="M136.83,140l-4.19,56.76L111.5,192.4s-14.57-28.93-14.57-34.35c0-1,1.73-26.37,3.12-27.06,3.89-2,8-1,8.67-1,12.5,0,18,2.43,18,2.43Z"/><path class="cls-14" d="M128.5,258.33l-4.86,72.87s18-25,21.51-40.25,4.17-40.25.7-41.64S128.5,258.33,128.5,258.33Z"/><path class="cls-15" d="M145.85,249.31c-3.47-1.39-17.35,9-17.35,9l-1,15.4a61,61,0,0,0,14.21-2.21A15,15,0,0,0,148,268C148.42,258.24,147.79,250.08,145.85,249.31Z"/><path class="cls-15" d="M104.26,269.38c1.2-7.8,1.18-15.49-.05-15.91-2.08-.69-13.88,2.78-13.88,2.78L86.52,264A133.11,133.11,0,0,0,104.26,269.38Z"/><path class="cls-16" d="M109.76,189.63l-22.2,70.78s34,13.88,60.37,6.25,0-63.85,0-63.85-7.63-18-13.19-20.12S109.76,189.63,109.76,189.63Z"/><path class="cls-16" d="M100.05,131,85.13,166.73s-9,9.37,4.16,16.3c3.7,1.95,14.57-22.2,14.57-22.2Z"/><path class="cls-16" d="M123.83,131.43l20.9,34.87s-8.25,6.33-5.47,10.49c1.06,1.59,7.63.35,7.63.35s3.12,2.93,10.52-8.54c2.25-3.51-15-30.67-15-30.67Z"/><path class="cls-17" d="M147.2,197.18l-2.1,4.15A4.47,4.47,0,0,1,145,198l1.45-2.86Z"/><path class="cls-17" d="M145.44,192.88l-.62,3L142,197.17s-.66-.64,1.23-2.43c.42-.41,1-3.68,1-3.68Z"/><path class="cls-18" d="M139.91,181.32a42.94,42.94,0,0,1,7.41,10.42c3,6.11,1.36,6.82,1.17,8.92s-.14,5.06-1.2,2.82-.5-6.35-1-7.55-2.05-2.43-3.3-3.87-2-2.58-1.6-.72a9,9,0,0,1,.38,3.15c-.12.67-.21,1.72-1.11,1.77s-.59-1.44-.71-2.06-2-3.48-2.25-4.2-.06-3.34-.09-5a21.11,21.11,0,0,1,.75-4.6C138.87,178.54,138.65,179.89,139.91,181.32Z"/><path class="cls-18" d="M87.21,169.16s-22.3-6.72-25.67-6.93-9.68-3.07-3.93,3.29,26.15,13.53,31,15.78S93.11,173,87.21,169.16Z"/><path class="cls-18" d="M122.1,116.18c1.12-6.74,5.32,2,5.32,2s-3.09,8.57-1.28,15.19c-.93.46-10.58,10.75-14.19.48C117.51,127.81,121.36,120.61,122.1,116.18Z"/><path class="cls-17" d="M125.91,124.46a12.26,12.26,0,0,1-5.16,3,12,12,0,0,1-4.07.42c3-4.37,4.91-8.69,5.42-11.71,1.12-6.74,5.32,2,5.32,2A36.68,36.68,0,0,0,125.91,124.46Z"/><path class="cls-18" d="M119.52,101.25s-5.66,7.22-6.38,11.91-1.9,10.68,2.76,11.57c3.73.71,8.46-4.28,11.09-6.27s-1.92-6.23,4-13.59C133.07,102.21,121.41,104.51,119.52,101.25Z"/><path class="cls-14" d="M140.85,174.16l-2.37,6,3.3,5s6.16-6,8.61-13.17C148,171.12,144.35,171.9,140.85,174.16Z"/><path class="cls-14" d="M140.48,338.34,122,335.13l1.74-8s2.43-1.87,3-.52C128.94,332.53,146.63,336.71,140.48,338.34Z"/><path class="cls-19" d="M137.35,334.28c-.23.05-.95,3.45-14.65-3.31l-1,4s14.4,5.82,22,3.11C146.4,337.08,140.84,335.9,137.35,334.28Z"/><path class="cls-14" d="M58.41,328.46c-.49.79-.08,3.72-.08,3.72S41.85,343.8,36.75,343c-2.16-.36-.28-2.15,3.89-5.13s11.07-7.93,13.35-10.5S64.06,319.34,58.41,328.46Z"/><path class="cls-19" d="M41,337.48c-.53,4.45,12-1.75,17.53-7.38,0,0,1.6,4.4.46,4.69-10,2.59-13.73,9.73-22.22,8.16C34.9,342.61,35.87,340.66,41,337.48Z"/><path class="cls-17" d="M51.82,156.92l-3.58-2.43s-3.1-4.55-4.17-4.58S45.69,154,45.69,154l4.06,4.9Z"/><path class="cls-17" d="M50.3,158.16l-3.58-2.43s-3.1-4.55-4.17-4.57,1.62,4.09,1.62,4.09l4,4.9Z"/><path class="cls-17" d="M54.36,158l-3.58-2.43s-3.1-4.55-4.17-4.57,1.62,4.09,1.62,4.09L52.28,160Z"/><path class="cls-18" d="M57.64,163.39s2.25-3.86-.12-6.3c-3.61-3.74-7.23-5.92-5.37-3s1.4,1.79-2,2.52l-3.38.73a43.64,43.64,0,0,0-4.1-2.66,1.43,1.43,0,0,0-1.77.45l4.71,4.26s4.91,2.19,6,3.34,6.58,3.76,6.58,3.76Z"/></g><rect class="cls-9" x="9.07" y="212.09" width="129.55" height="9.07"/><rect class="cls-3" x="79.35" y="212.09" width="147.11" height="9.07"/><path class="cls-11" d="M60.35,194.32c4.21-1.9,6.73-8.38,6.75-12.12v-5.37H49.2v5.37c0,3.74,2.54,10.22,6.76,12.12-4.21,1.9-6.74,8.38-6.76,12.12v5.37H67.1v-5.37C67.09,202.7,64.56,196.22,60.35,194.32Z"/><path class="cls-3" d="M51.16,184.71c.76,3.15,2.73,6.91,5.46,8.14l1.53.69,1.53-.69c2.73-1.23,4.71-5,5.46-8.14Z"/><path class="cls-3" d="M56.62,206.18c-1.9.85-3.44,2.94-4.45,5.2h12c-1-2.26-2.54-4.35-4.45-5.2l-1.53-.69Z"/><rect class="cls-3" x="57.53" y="191.15" width="1.25" height="15.22"/><rect class="cls-6" x="126.76" y="137.39" width="90.22" height="54.48"/><polygon class="cls-6" points="185.41 211.75 158.33 211.75 163.18 182.19 180.57 182.19 185.41 211.75"/><polygon class="cls-5" points="161.59 191.87 163.18 182.19 155.83 191.87 161.59 191.87"/><line class="cls-20" x1="158.33" y1="211.75" x2="163.18" y2="182.19"/><polyline class="cls-20" points="126.76 191.87 126.76 137.39 216.99 137.39"/><path class="cls-3" d="M215.93,199.6s2.31-8.27,6-11.09,6.29-6.78,11.09-8.6,6-5.13,4.13-6.29-7.78-4.47-15.06,3.14-9.1,13.58-8.94,20.69S215.6,203.74,215.93,199.6Z"/><path class="cls-21" d="M234.47,174.89s-7.29,2.15-10.6,4.63-9.43,9.44-9.76,16.22"/><path class="cls-10" d="M213.94,202.25s-3.75-10.59-5.3-13.9-1.32-11.26,1.11-14.35,6.4-7.72,4.63-14.56-.88-11,2.43-8.39,9.12,8.49,9.27,17.88c.11,7.17-2,11.37-6,16.55C216.92,189.67,213.72,197.4,213.94,202.25Z"/><path class="cls-9" d="M212.46,199.78c-.09-.44-2-10.75,0-15.1.46-1,1.07-2.2,1.73-3.48,2.13-4.2,5.06-9.95,5.36-13.95.48-6.44-3.55-12.65-3.59-12.71l.55-.36c.18.26,4.2,6.46,3.7,13.12-.31,4.13-3.15,9.71-5.43,14.2-.65,1.27-1.26,2.47-1.72,3.46-1.92,4.15,0,14.59,0,14.69Z"/><path class="cls-3" d="M199.21,186.53c-4.31-.83-4.64-5.8-1.33-6.79s8.78-.83,11.43,2.65c3.07,4,4.3,11.26,3.31,16.39s0-2-2.16-5.46S202.76,187.21,199.21,186.53Z"/><path class="cls-20" d="M197.22,182.5s6-1.16,10.1,2.81c3.58,3.44,5.13,7.73,5.79,12.14"/><polygon class="cls-9" points="221.06 212.29 209.14 212.29 207.15 193.09 223.04 193.09 221.06 212.29"/><polyline class="cls-20" points="209.14 212.29 207.15 193.09 223.04 193.09"/></g></g></svg>