<svg xmlns="http://www.w3.org/2000/svg" viewBox="0 0 247 247"><defs><style>.cls-1{fill:#f2fcff;}.cls-2{fill:#c5e1f9;}.cls-3{fill:#fff;}.cls-4{fill:#1f2a68;}.cls-5{fill:#fadacd;}.cls-10,.cls-6{fill:none;stroke-miterlimit:10;}.cls-6{stroke:#e4b0a2;}.cls-7{fill:#0cf;}.cls-8{fill:#9ac7f7;}.cls-9{fill:#7eb3ff;}.cls-10{stroke:#1f2a68;}.cls-11{fill:#e4b0a2;}.cls-12{fill:#0063cb;}.cls-13{fill:#8dcfff;}</style></defs><g id="Layer_2" data-name="Layer 2"><g id="Layer_1-2" data-name="Layer 1"><rect class="cls-1" width="247" height="247" rx="6"/><path class="cls-2" d="M218.93,121.45a34.41,34.41,0,0,0,13.33-25.51c0-.64.07-1.27.08-1.92h0a34.41,34.41,0,0,0-1.59-11.08,1.76,1.76,0,0,1-.1-.3,2.46,2.46,0,0,0,.09.29L220.2,86.19a24.57,24.57,0,0,1,1.1,7.66h0a24.74,24.74,0,0,1-10.49,19.88l6.37,9C217.77,122.34,218.36,121.9,218.93,121.45Z"/><path class="cls-2" d="M176.31,107.77A24.76,24.76,0,1,1,220.2,86.19l10.54-3.27a2.46,2.46,0,0,1-.09-.29c-.15-.44-.29-.88-.45-1.31,0-.12-.09-.25-.14-.37a35.14,35.14,0,0,0-31.55-23.19l-1,0-.45,0H197c-.48,0-1,0-1.43,0h-.43c-.37,0-.74,0-1.12.07l-.77,0-.62.07-1.28.16h-.07a36,36,0,0,0-8.73,2.47l-1,.44,0,0A35.83,35.83,0,0,0,161,89.26c0,.07,0,.14,0,.21-.05.42-.08.85-.12,1.27,0,.22,0,.44,0,.65s0,.58,0,.87,0,.49,0,.74a35.59,35.59,0,0,0,6.55,21.13Z"/><path class="cls-3" d="M217.18,122.76l-6.37-9a24.67,24.67,0,0,1-14.62,4.52h0a24.7,24.7,0,0,1-19.88-10.49l-9,6.36h0c.41.58.82,1.13,1.25,1.67a34.37,34.37,0,0,0,23.81,13.26l.2,0c.49,0,1,.1,1.48.13h.08l.44,0c.49,0,1,.06,1.49.07A35.69,35.69,0,0,0,216.81,123C217.54,122.53,217.77,122.34,217.18,122.76Z"/><path class="cls-4" d="M197.26,93l38.93,12.65a40.93,40.93,0,0,0-26.28-51.57,38.85,38.85,0,0,0-12.65-2Z"/><path class="cls-5" d="M188,124.77s-3.55-5.49-3.07-7.27a17.38,17.38,0,0,1,1.59-3.67s1.19-1.49,2.33-.7a1.36,1.36,0,0,1,.57.75l2.47-2.47s6.1-6.3,6.49-6.41c1.15-.29,1.06,1.1,1.06,1.1l-5.31,7.06s3.94,4.57,3.78,6.13c-.27,2.84-8.49,6.67-8.49,6.67Z"/><path class="cls-6" d="M194.16,113.16s3.94,4.57,3.78,6.13"/><path class="cls-6" d="M189.45,113.88l2.47-2.47s6.1-6.3,6.49-6.41c1.15-.29,1.06,1.1,1.06,1.1"/><polygon class="cls-5" points="179.04 123.37 186.39 117.32 189.58 123.89 182.38 129.52 179.04 123.37"/><path class="cls-7" d="M135.11,211.76H79.58S68,154.47,87.66,147.09s31.28-4.57,36.55-3.87,27.77,0,27.77,0l27.81-21.39,10.15,12.61-33.74,33-25.31,4.21Z"/><path class="cls-5" d="M117.71,211.76h21.71s-5-5.8-11.17-8.08c-7-2.59-10.19-1.68-10.19-1.68Z"/><path class="cls-8" d="M138.88,209.53l0-.06v-1.92l79.46-1.44,0,1.91a.15.15,0,0,1,0,.07l-.2.35c-1,1.69-2.82,2-4.92,2.06l-69.14,1.26c-2.1,0-3.93-.23-5-1.87Z"/><path class="cls-9" d="M158,209.5v.06l-.19.3a3.31,3.31,0,0,1-1.15,1l-12.08.22c-2,0-3.78-.17-4.79-1.5l-.2-.29,0-.05v-.94L158,208Z"/><rect class="cls-4" x="168.74" y="207.09" width="39.71" height="1.35" transform="translate(-3.75 3.46) rotate(-1.04)"/><path class="cls-2" d="M158.43,207.13,168,167.89a2.59,2.59,0,0,1,2.33-1.9l55.74-1a1.39,1.39,0,0,1,1.41,1.84l-9.6,39.24Z"/><path class="cls-8" d="M189.59,186.1a2.68,2.68,0,0,0,2.72,3.56A5,5,0,0,0,196.8,186a2.69,2.69,0,0,0-2.72-3.57A5,5,0,0,0,189.59,186.1Z"/><polyline class="cls-10" points="117.89 211.72 117.89 199.46 117.89 196.3 93.99 196.3 95.39 172.4"/><path class="cls-6" d="M138.79,211.59s-6.07-8.79-20.83-9.84"/><path class="cls-6" d="M123.38,205.48c9.27.66,12.57,6.18,12.57,6.18"/><path class="cls-4" d="M116.69,131.81s-11.88-2.86-15-5.83,3.85-3.78,1.94-9c-2.77-7.52,5.69-18.81,8.67-10.53s-1.23,11.24-1,7.32-1.78-14.5,9.3-13,14.42,8.94,4.91,11.76,11.69-9,10.71-1.65-7.46,6-9.7,5.75,9.35-4.89,7.57,2.78S125.44,130,116.69,131.81Z"/><path class="cls-5" d="M107.47,131s-1.17,6.87-2.51,10c-2.4,5.6-5.41,14.81,12.76,10.48,3-.73-5.57-9.89-1.26-14.4S107.47,131,107.47,131Z"/><path class="cls-11" d="M106,130.9s2.37,2.54-.74,10.95c0,0,5.91,3,9.72-.45a5.18,5.18,0,0,1,1.52-4.36C120.78,132.52,106,130.9,106,130.9Z"/><path class="cls-5" d="M125.84,115.87s1.54,5.76-.47,14.5-6.62,10.77-13.81,8.56-7.12-11.1-6.68-13.24-6.63-1.35-4.44-6.1,4.94-2.45,5-.46,1,4.67,2.79,3.29-.3-9.46,3-7.79S120.57,118.75,125.84,115.87Z"/><path class="cls-6" d="M123.18,208.27s6.38.15,8.37,3.14h-8.37"/><path class="cls-7" d="M20.47,193.71a2.68,2.68,0,0,0,1.32-.64,2.72,2.72,0,0,0,.94-1.9l-.66,0a2.08,2.08,0,0,1-.71,1.45,2.11,2.11,0,0,1-1.54.51,1.61,1.61,0,0,1-1.11-.55,1.63,1.63,0,0,1-.39-1.18,1.21,1.21,0,0,1,.41-.84,1.19,1.19,0,0,1,.9-.3.87.87,0,0,1,.63.31,1,1,0,0,1,.23.67l.65,0a1.57,1.57,0,0,0-.38-1.14,1.59,1.59,0,0,0-1.09-.54,1.89,1.89,0,0,0-2,1.76,2.22,2.22,0,0,0,.56,1.65,2.25,2.25,0,0,0,1.56.78A2.64,2.64,0,0,0,20.47,193.71Z"/><rect class="cls-12" x="45.6" y="205.67" width="6.19" height="7.19" rx="0.66"/><rect class="cls-12" x="29.5" y="205.67" width="6.2" height="7.19" rx="0.66"/><path class="cls-7" d="M58.12,174.94h.12v11.39H52.06a7.31,7.31,0,0,1,6.06-11.4Z"/><path class="cls-4" d="M36.68,178.9H47.59a14.89,14.89,0,0,1,14.19,10.41h3.9V198H63.12l.55,2.67H61a14.85,14.85,0,0,1-13.41,8.48H36.68a14.86,14.86,0,0,1-14.86-14.87v-.5A14.86,14.86,0,0,1,36.68,178.9Z"/><path class="cls-7" d="M34.82,212.55a1.45,1.45,0,0,1,0,.3H30.16a.65.65,0,0,1-.66-.65v-3.49a14.72,14.72,0,0,0,5.32,1.9Z"/><path class="cls-7" d="M51.8,210.51v1.69a.66.66,0,0,1-.66.65H47.36v-2h1.33A15.19,15.19,0,0,0,51.8,210.51Z"/><path class="cls-7" d="M54.21,192.53h.63a1.92,1.92,0,0,1,3.83,0h.63a2.55,2.55,0,0,0-5.09,0Z"/><path class="cls-4" d="M52.67,174.94h.12v11.39H46.61a7.31,7.31,0,0,1,6.06-11.4Z"/><path class="cls-7" d="M18.8,189.32a1.56,1.56,0,0,1,.81-.9,1.59,1.59,0,0,1,1.21-.06l-.22.62a.92.92,0,0,0-.71,0,.94.94,0,0,0-.47.53,1.23,1.23,0,0,0,0,.94A1.08,1.08,0,0,0,21,191c.23-.1.15,1.07-.93.79l-.16-.05A1.89,1.89,0,0,1,18.8,189.32Z"/><path class="cls-6" d="M193.35,114.48a13.6,13.6,0,0,0-2.28,2.29c-.18.52-.23,1.22.92,1.55"/><path class="cls-6" d="M194.29,115.9a14,14,0,0,0-2.29,2.29c-.17.52-.21,1.34.78,1.48"/><path class="cls-6" d="M195.09,117.33l-1.22,1.11a6.33,6.33,0,0,0-1.31,1.43.94.94,0,0,0,1,1.28"/><path class="cls-6" d="M196.07,118.68l-1,.85a6.55,6.55,0,0,0-1.31,1.43c-.17.53-.26,1.06.36,1.32"/><path class="cls-6" d="M188.27,116.6l.73.55a1.26,1.26,0,0,0,1.78,0h0a1.26,1.26,0,0,0,0-1.78l-1.94-2a1.26,1.26,0,0,0-1.78,0h0c-.49.49-1.34,2.87-2,4.85l-4.92,3.87"/><rect class="cls-7" x="10.14" y="211.77" width="167.69" height="9.39"/><rect class="cls-13" x="49.58" y="211.77" width="190.42" height="9.39"/></g></g></svg>