<?xml version="1.0" encoding="UTF-8" standalone="no"?><!-- Generator: Gravit.io --><svg xmlns="http://www.w3.org/2000/svg" xmlns:xlink="http://www.w3.org/1999/xlink" style="isolation:isolate" viewBox="135 100 788 717.489" width="788pt" height="717.489pt"><defs><clipPath id="_clipPath_Q5cfjjeG1Rw9mOTDYgC03JjOulOR3QeZ"><rect x="135" y="100" width="788" height="717.489"/></clipPath></defs><g clip-path="url(#_clipPath_Q5cfjjeG1Rw9mOTDYgC03JjOulOR3QeZ)"><g opacity="0"><rect x="135" y="100" width="788" height="717.489" transform="matrix(1,0,0,1,0,0)" fill="rgb(235,235,235)"/></g><path d=" M 706.728 725.246 C 716.133 717.937 725.121 710.018 733.63 701.523 C 787.802 647.276 818.343 573.565 818.343 496.894 C 818.343 420.223 787.802 346.511 733.63 292.264 C 679.379 238.096 605.676 207.55 529.001 207.55 C 452.324 207.55 378.621 238.096 324.37 292.264 C 270.199 346.511 239.657 420.223 239.657 496.894 L 239.657 496.894 L 239.657 496.894 L 239.657 496.894 C 239.657 573.565 270.199 647.276 324.37 701.523 C 332.881 710.018 341.869 717.937 351.272 725.246 L 306.887 782.272 C 221.969 716.062 167.321 612.81 167.321 496.894 L 167.321 496.894 L 167.321 496.894 L 167.321 496.894 C 167.321 297.28 329.384 135.217 529.001 135.217 C 728.616 135.217 890.679 297.28 890.679 496.894 C 890.679 612.81 836.031 716.062 751.113 782.272 L 706.728 725.246 Z  M 613.462 605.41 C 617.932 601.942 622.205 598.18 626.252 594.147 C 651.972 568.346 666.519 533.382 666.519 496.894 C 666.519 460.405 651.972 425.442 626.252 399.64 C 600.453 373.928 565.489 359.378 529.001 359.378 C 492.511 359.378 457.549 373.928 431.748 399.64 C 406.03 425.442 391.483 460.405 391.483 496.894 L 391.483 496.894 L 391.483 496.894 C 391.483 533.382 406.03 568.346 431.748 594.147 C 435.797 598.18 440.07 601.942 444.539 605.41 L 400.141 662.459 C 350.876 624.05 319.172 564.143 319.172 496.894 L 319.172 496.894 L 319.172 496.894 C 319.172 381.091 413.193 287.068 529.001 287.068 C 644.808 287.068 738.828 381.091 738.828 496.894 C 738.828 564.143 707.124 624.05 657.859 662.459 L 613.462 605.41 Z " fill-rule="evenodd" fill="rgb(242,252,255)"/></g></svg>